<svg width="529" height="398" viewBox="0 0 529 398" fill="none" xmlns="http://www.w3.org/2000/svg">
<g clip-path="url(#clip0_140_18138)">
<path opacity="0.18" d="M119.367 388.03C152.008 402.674 191.482 401.123 222.866 383.966C232.608 378.635 241.641 371.891 252.012 367.909C277.147 358.265 305.304 366.306 332.174 364.562C377.548 361.62 417.379 329.939 440.41 290.805C463.441 251.672 472.112 205.845 477.109 160.732C482.703 110.292 480.594 51.1187 440.453 19.9793C408.363 -4.92286 363.123 -2.44854 323.279 5.52856C283.435 13.5057 242.48 25.7656 202.946 16.4525C188.689 13.1062 174.918 6.97621 160.287 6.25882C134.192 4.97012 110.111 21.2937 93.3451 41.3117C64.5776 75.6428 51.9905 121.181 49.9507 165.887C47.9067 210.751 55.8634 255.856 57.0598 300.492C58.1012 339.596 83.3701 371.861 119.367 388.03Z" fill="#54B1A8"/>
<path d="M359.629 70.561H184.747C170.558 70.561 159.056 82.0428 159.056 96.2063V291.725C159.056 305.888 170.558 317.37 184.747 317.37H359.629C373.817 317.37 385.319 305.888 385.319 291.725V96.2063C385.319 82.0428 373.817 70.561 359.629 70.561Z" fill="white"/>
<path d="M191.034 317.37L223.171 288.039C223.171 288.039 267.461 319.608 309.788 291.501C352.115 263.395 353.514 208.272 334.2 187.116C314.887 165.96 315.124 181.012 315.124 181.012C315.124 181.012 345.247 264.112 279.837 272.45C214.427 280.788 208.088 262.209 208.088 262.209L168.304 317.37H191.034Z" fill="url(#paint0_linear_140_18138)"/>
<path d="M159.056 146.934L196.004 168.675L258.29 126.07L327.165 171.974L385.319 118.359V100.528L326.252 151.526L258.845 113.355L195.127 147.755L159.056 135.306V146.934Z" fill="url(#paint1_linear_140_18138)"/>
<path d="M108.501 166.402L104.349 161.187L149.361 125.469L195.127 147.755L258.686 105.455L329.463 148.511L401 79.2641L405.644 84.0452L330.401 156.879L258.845 113.355L195.639 155.418L150.222 133.3L108.501 166.402Z" fill="#54B1A8"/>
<path d="M140.427 321.331C139.411 322.344 138.605 323.547 138.055 324.872C137.505 326.196 137.222 327.616 137.222 329.05C137.222 330.484 137.505 331.903 138.055 333.228C138.605 334.553 139.411 335.756 140.427 336.769C141.443 337.784 142.648 338.588 143.975 339.137C145.302 339.686 146.724 339.969 148.16 339.969C149.597 339.969 151.019 339.686 152.346 339.137C153.673 338.588 154.878 337.784 155.893 336.769L224.342 271.277C226.392 269.229 227.544 266.453 227.544 263.558C227.544 260.663 226.392 257.886 224.342 255.838C222.29 253.792 219.509 252.642 216.609 252.642C213.708 252.642 210.927 253.792 208.876 255.838L140.427 321.331Z" fill="#54B1A8"/>
<path d="M189.003 216.138C189.004 231.043 193.432 245.613 201.729 258.006C210.025 270.399 221.816 280.058 235.611 285.761C249.407 291.465 264.587 292.957 279.231 290.048C293.876 287.14 307.328 279.962 317.886 269.422C328.444 258.882 335.634 245.453 338.547 230.834C341.459 216.215 339.964 201.063 334.25 187.292C328.535 173.521 318.859 161.751 306.443 153.471C294.028 145.19 279.432 140.77 264.5 140.77C254.585 140.77 244.767 142.719 235.607 146.507C226.447 150.295 218.125 155.846 211.114 162.845C204.103 169.843 198.542 178.152 194.749 187.296C190.955 196.44 189.002 206.24 189.003 216.138ZM208.075 216.138C208.078 204.998 211.389 194.11 217.591 184.849C223.792 175.588 232.606 168.37 242.916 164.109C253.227 159.848 264.571 158.735 275.516 160.909C286.46 163.084 296.513 168.45 304.403 176.327C312.293 184.205 317.665 194.241 319.841 205.167C322.018 216.092 320.899 227.417 316.628 237.708C312.357 248 305.125 256.796 295.846 262.984C286.568 269.173 275.659 272.476 264.5 272.476C257.089 272.476 249.75 271.019 242.903 268.188C236.057 265.357 229.836 261.207 224.596 255.975C219.356 250.743 215.2 244.532 212.365 237.697C209.531 230.862 208.073 223.536 208.075 216.138Z" fill="#54B1A8"/>
<path d="M189.003 216.138C189.004 231.043 193.432 245.613 201.729 258.006C210.025 270.399 221.816 280.058 235.611 285.761C249.407 291.465 264.587 292.957 279.231 290.048C293.876 287.14 307.328 279.962 317.886 269.422C328.444 258.882 335.634 245.453 338.547 230.834C341.459 216.215 339.964 201.063 334.25 187.292C328.535 173.521 318.859 161.751 306.443 153.471C294.028 145.19 279.432 140.77 264.5 140.77C254.585 140.77 244.767 142.719 235.607 146.507C226.447 150.295 218.125 155.846 211.114 162.845C204.103 169.843 198.542 178.152 194.749 187.296C190.955 196.44 189.002 206.24 189.003 216.138ZM208.075 216.138C208.078 204.998 211.389 194.11 217.591 184.849C223.792 175.588 232.606 168.37 242.916 164.109C253.227 159.848 264.571 158.735 275.516 160.909C286.46 163.084 296.513 168.45 304.403 176.327C312.293 184.205 317.665 194.241 319.841 205.167C322.018 216.092 320.899 227.417 316.628 237.708C312.357 248 305.125 256.796 295.846 262.984C286.568 269.173 275.659 272.476 264.5 272.476C257.089 272.476 249.75 271.019 242.903 268.188C236.057 265.357 229.836 261.207 224.596 255.975C219.356 250.743 215.2 244.532 212.365 237.697C209.531 230.862 208.073 223.536 208.075 216.138Z" fill="url(#paint2_linear_140_18138)"/>
<path d="M183.202 210.669C183.201 225.576 187.629 240.148 195.925 252.543C204.22 264.938 216.012 274.599 229.808 280.304C243.605 286.009 258.786 287.501 273.432 284.593C288.078 281.686 301.532 274.507 312.091 263.967C322.65 253.426 329.841 239.996 332.754 225.376C335.667 210.756 334.172 195.601 328.457 181.83C322.742 168.058 313.064 156.287 300.647 148.006C288.23 139.724 273.632 135.305 258.699 135.306C238.676 135.306 219.473 143.246 205.315 157.379C191.156 171.513 183.202 190.682 183.202 210.669ZM202.279 210.669C202.278 199.529 205.586 188.638 211.786 179.375C217.986 170.112 226.798 162.892 237.109 158.628C247.419 154.365 258.765 153.249 269.71 155.422C280.656 157.595 290.71 162.96 298.602 170.837C306.493 178.715 311.867 188.751 314.044 199.678C316.221 210.604 315.103 221.929 310.832 232.222C306.561 242.514 299.328 251.311 290.049 257.499C280.769 263.688 269.859 266.991 258.699 266.99C243.735 266.99 229.385 261.056 218.804 250.494C208.223 239.932 202.279 225.606 202.279 210.669Z" fill="#54B1A8"/>
<path d="M405.769 118.359L399.111 117.9L401.504 83.3063L362.964 89.5093L361.901 82.9326L408.738 75.398L405.769 118.359Z" fill="#54B1A8"/>
<path d="M240.066 223.041H227.642V240.318H240.066V223.041Z" fill="#54B1A8"/>
<path d="M255.39 205.119H242.966V240.318H255.39V205.119Z" fill="#54B1A8"/>
<path d="M270.714 218.887H258.29V240.318H270.714V218.887Z" fill="#54B1A8"/>
<path d="M286.034 193.968H273.61V240.318H286.034V193.968Z" fill="#54B1A8"/>
<path d="M255.39 205.119H242.966V240.318H255.39V205.119Z" fill="url(#paint3_linear_140_18138)"/>
<path d="M286.034 193.968H273.61V240.318H286.034V193.968Z" fill="url(#paint4_linear_140_18138)"/>
<path d="M301.358 181.02H288.934V240.318H301.358V181.02Z" fill="#54B1A8"/>
<path d="M258.703 119.85C264.049 119.85 268.382 115.524 268.382 110.189C268.382 104.853 264.049 100.528 258.703 100.528C253.358 100.528 249.025 104.853 249.025 110.189C249.025 115.524 253.358 119.85 258.703 119.85Z" fill="#54B1A8"/>
<path d="M258.703 119.85C264.049 119.85 268.382 115.524 268.382 110.189C268.382 104.853 264.049 100.528 258.703 100.528C253.358 100.528 249.025 104.853 249.025 110.189C249.025 115.524 253.358 119.85 258.703 119.85Z" fill="url(#paint5_linear_140_18138)"/>
<path d="M328.972 159.813C334.317 159.813 338.65 155.487 338.65 150.152C338.65 144.816 334.317 140.491 328.972 140.491C323.627 140.491 319.294 144.816 319.294 150.152C319.294 155.487 323.627 159.813 328.972 159.813Z" fill="#54B1A8"/>
<path d="M328.972 159.813C334.317 159.813 338.65 155.487 338.65 150.152C338.65 144.816 334.317 140.491 328.972 140.491C323.627 140.491 319.294 144.816 319.294 150.152C319.294 155.487 323.627 159.813 328.972 159.813Z" fill="url(#paint6_linear_140_18138)"/>
<path d="M149.378 139.863C154.723 139.863 159.056 135.538 159.056 130.202C159.056 124.867 154.723 120.541 149.378 120.541C144.033 120.541 139.7 124.867 139.7 130.202C139.7 135.538 144.033 139.863 149.378 139.863Z" fill="#54B1A8"/>
<path d="M149.378 139.863C154.723 139.863 159.056 135.538 159.056 130.202C159.056 124.867 154.723 120.541 149.378 120.541C144.033 120.541 139.7 124.867 139.7 130.202C139.7 135.538 144.033 139.863 149.378 139.863Z" fill="url(#paint7_linear_140_18138)"/>
<path d="M195.234 161.187C200.579 161.187 204.912 156.862 204.912 151.526C204.912 146.191 200.579 141.865 195.234 141.865C189.889 141.865 185.556 146.191 185.556 151.526C185.556 156.862 189.889 161.187 195.234 161.187Z" fill="#54B1A8"/>
<path d="M195.234 161.187C200.579 161.187 204.912 156.862 204.912 151.526C204.912 146.191 200.579 141.865 195.234 141.865C189.889 141.865 185.556 146.191 185.556 151.526C185.556 156.862 189.889 161.187 195.234 161.187Z" fill="url(#paint8_linear_140_18138)"/>
</g>
<defs>
<linearGradient id="paint0_linear_140_18138" x1="193.689" y1="140.83" x2="390.671" y2="519.046" gradientUnits="userSpaceOnUse">
<stop offset="0.01"/>
<stop offset="0.08" stop-opacity="0.69"/>
<stop offset="0.21" stop-opacity="0.32"/>
<stop offset="1" stop-opacity="0"/>
</linearGradient>
<linearGradient id="paint1_linear_140_18138" x1="271.196" y1="-11.6327" x2="274.318" y2="415.6" gradientUnits="userSpaceOnUse">
<stop offset="0.01"/>
<stop offset="0.08" stop-opacity="0.69"/>
<stop offset="0.21" stop-opacity="0.32"/>
<stop offset="1" stop-opacity="0"/>
</linearGradient>
<linearGradient id="paint2_linear_140_18138" x1="95.7893" y1="20.0952" x2="839.719" y2="887.592" gradientUnits="userSpaceOnUse">
<stop offset="0.01"/>
<stop offset="0.08" stop-opacity="0.69"/>
<stop offset="0.21" stop-opacity="0.32"/>
<stop offset="1" stop-opacity="0"/>
</linearGradient>
<linearGradient id="paint3_linear_140_18138" x1="219.896" y1="167.39" x2="351.222" y2="416.41" gradientUnits="userSpaceOnUse">
<stop offset="0.01"/>
<stop offset="0.08" stop-opacity="0.69"/>
<stop offset="0.21" stop-opacity="0.32"/>
<stop offset="1" stop-opacity="0"/>
</linearGradient>
<linearGradient id="paint4_linear_140_18138" x1="246.164" y1="153.541" x2="377.489" y2="402.556" gradientUnits="userSpaceOnUse">
<stop offset="0.01"/>
<stop offset="0.08" stop-opacity="0.69"/>
<stop offset="0.21" stop-opacity="0.32"/>
<stop offset="1" stop-opacity="0"/>
</linearGradient>
<linearGradient id="paint5_linear_140_18138" x1="229.239" y1="94.3033" x2="414.868" y2="194.736" gradientUnits="userSpaceOnUse">
<stop offset="0.01"/>
<stop offset="0.08" stop-opacity="0.69"/>
<stop offset="0.21" stop-opacity="0.32"/>
<stop offset="1" stop-opacity="0"/>
</linearGradient>
<linearGradient id="paint6_linear_140_18138" x1="299.512" y1="134.266" x2="485.136" y2="234.699" gradientUnits="userSpaceOnUse">
<stop offset="0.01"/>
<stop offset="0.08" stop-opacity="0.69"/>
<stop offset="0.21" stop-opacity="0.32"/>
<stop offset="1" stop-opacity="0"/>
</linearGradient>
<linearGradient id="paint7_linear_140_18138" x1="119.918" y1="114.317" x2="305.543" y2="214.75" gradientUnits="userSpaceOnUse">
<stop offset="0.01"/>
<stop offset="0.08" stop-opacity="0.69"/>
<stop offset="0.21" stop-opacity="0.32"/>
<stop offset="1" stop-opacity="0"/>
</linearGradient>
<linearGradient id="paint8_linear_140_18138" x1="165.774" y1="135.641" x2="351.399" y2="236.069" gradientUnits="userSpaceOnUse">
<stop offset="0.01"/>
<stop offset="0.08" stop-opacity="0.69"/>
<stop offset="0.21" stop-opacity="0.32"/>
<stop offset="1" stop-opacity="0"/>
</linearGradient>
<clipPath id="clip0_140_18138">
<rect width="529" height="398" fill="white"/>
</clipPath>
</defs>
</svg>
